<?xml version="1.0" standalone="no"?>
<!DOCTYPE svg PUBLIC "-//W3C//DTD SVG 20010904//EN"
 "http://www.w3.org/TR/2001/REC-SVG-20010904/DTD/svg10.dtd">
<svg version="1.0" xmlns="http://www.w3.org/2000/svg"
 width="979.000000pt" height="255.000000pt" viewBox="0 0 979.000000 255.000000"
 preserveAspectRatio="xMidYMid meet">

  <defs>
    <linearGradient id="gradient1" x1="0%" y1="0%" x2="100%" y2="0%">
      <stop offset="0%" style="stop-color:red;stop-opacity:1" />
      <stop offset="50%" style="stop-color:blue;stop-opacity:1" />
      <stop offset="100%" style="stop-color:green;stop-opacity:1" />
    </linearGradient>
  </defs>
  <g transform="translate(0.000000,255.000000) scale(0.100000,-0.100000)" fill="url(#gradient1)" stroke="none">
    <path d="M10 10 h 80 v 80 h -80 Z"/>

<path d="M765 2401 c-136 -58 -165 -77 -164 -105 0 -21 0 -21 9 0 8 20 152 94
183 94 8 0 20 7 27 15 18 21 30 19 30 -6 0 -12 9 -52 20 -90 49 -162 217 -259
364 -209 88 29 178 153 194 266 7 45 7 45 27 26 17 -16 55 -26 55 -16 0 2 -22
15 -49 29 l-49 24 -65 -29 c-154 -70 -309 -60 -423 26 -17 13 -35 24 -40 23
-5 0 -58 -22 -119 -48z m560 -31 c-3 -5 -12 -10 -18 -10 -7 0 -6 4 3 10 19 12
23 12 15 0z m-341 -47 c22 -9 59 -19 81 -23 l40 -7 -36 -2 c-47 -1 -152 35
-175 61 l-19 21 34 -17 c18 -10 52 -25 75 -33z m331 -13 c-28 -12 -37 -12 -30
0 3 6 16 10 28 9 21 0 21 -1 2 -9z m-55 -10 c-8 -5 -19 -10 -25 -10 -5 0 -3 5
5 10 8 5 20 10 25 10 6 0 3 -5 -5 -10z m-18 -92 c2 -25 0 -44 -4 -41 -5 2 -8
-3 -8 -11 0 -9 -5 -16 -11 -16 -5 0 -7 -6 -3 -12 6 -10 4 -10 -7 0 -7 6 -36
12 -64 12 -56 0 -66 5 -58 26 6 16 113 20 113 4 0 -5 7 -7 15 -4 8 4 15 15 15
25 0 17 -8 19 -79 19 -67 0 -80 -3 -84 -17 -3 -10 -5 0 -6 22 l-1 40 89 0 89
0 4 -47z"/>
<path d="M1641 2298 c13 -11 17 -42 22 -158 3 -80 8 -155 12 -167 13 -42 -10
-23 -35 28 -13 27 -32 57 -42 66 -35 31 6 -70 61 -152 28 -42 51 -81 51 -86 0
-15 -16 -10 -35 11 -23 25 -105 80 -119 80 -6 0 5 -9 24 -21 65 -39 139 -120
156 -171 9 -27 13 -56 10 -64 -3 -9 -2 -12 5 -9 6 4 7 -3 3 -21 -5 -21 -4 -25
6 -19 9 5 11 4 6 -3 -4 -7 1 -37 10 -67 18 -55 18 -55 -5 -76 -13 -13 -21 -29
-18 -39 3 -10 2 -32 -2 -49 l-6 -29 -59 45 c-63 47 -155 98 -163 90 -5 -6 8
-17 65 -57 46 -33 56 -56 20 -46 -13 4 -52 13 -88 21 -76 16 -177 53 -275 101
-69 33 -157 111 -246 219 -97 118 -180 186 -233 192 -17 1 -58 6 -91 10 -48 6
-63 5 -73 -7 -11 -13 -11 -12 -3 6 6 12 25 34 43 50 18 15 32 31 30 37 -1 5 3
16 10 25 12 14 10 14 -12 2 -14 -7 -39 -23 -57 -36 -17 -13 -35 -24 -38 -24
-12 0 6 83 31 144 13 32 27 75 30 95 7 33 6 35 -9 22 -10 -7 -18 -23 -18 -35
-1 -12 -5 -6 -8 14 -6 29 -10 14 -25 -85 -10 -66 -24 -142 -32 -170 -7 -27
-18 -69 -24 -93 -8 -32 -31 -64 -82 -120 -109 -118 -146 -168 -198 -272 -69
-139 -71 -164 -2 -32 53 102 68 121 157 205 54 51 102 94 107 96 26 10 -38
-353 -65 -371 -6 -4 -11 -38 -11 -76 -1 -39 -4 -73 -8 -77 -11 -11 -20 55 -14
98 4 25 1 60 -7 87 l-14 45 -12 -29 c-6 -16 -15 -88 -20 -160 -9 -128 -16
-166 -30 -166 -20 0 -51 50 -59 95 -9 45 -10 47 -11 15 l-1 -35 -21 32 c-12
18 -23 33 -26 33 -10 0 35 -66 78 -114 41 -46 44 -54 35 -78 -5 -16 -15 -28
-20 -28 -14 1 -80 87 -118 153 -16 29 -27 43 -23 32 23 -73 146 -226 208 -260
l36 -19 24 22 c27 25 37 28 37 9 0 -26 88 -193 129 -244 22 -29 41 -56 41 -61
0 -16 168 -213 263 -309 167 -170 240 -201 352 -149 132 60 285 198 422 380
102 136 148 233 168 351 9 54 13 57 35 35 25 -25 44 -25 87 1 75 47 222 260
188 273 -23 9 -42 -3 -55 -35 -13 -30 -125 -149 -141 -149 -6 0 13 27 40 60
28 33 69 92 92 131 l43 71 19 -38 c11 -22 22 -33 24 -27 3 7 -4 25 -14 40 -11
16 -26 47 -35 70 -9 24 -42 90 -73 148 -51 95 -69 118 -186 233 l-129 127 -29
175 c-16 96 -29 190 -28 208 2 27 -3 37 -23 49 -16 10 -19 10 -9 1z m-814
-480 c6 -7 18 -38 28 -68 38 -119 135 -280 209 -349 l26 -25 -27 -29 -28 -29
52 26 c51 25 53 26 88 9 34 -16 35 -18 35 -78 l0 -62 -126 -7 c-70 -3 -129 -4
-132 -2 -3 3 8 22 23 43 20 27 8 18 -42 -29 -60 -58 -76 -68 -106 -68 -37 0
-72 32 -60 54 4 8 3 8 -6 0 -28 -25 38 -81 83 -70 18 4 28 -7 65 -75 54 -96
124 -185 171 -217 74 -50 226 -7 369 106 55 43 67 48 79 36 18 -19 38 -18 46
2 4 9 13 57 21 107 8 49 16 91 17 93 2 1 50 -35 108 -80 104 -82 105 -82 102
-122 -5 -62 -60 -214 -98 -272 -57 -86 -101 -129 -174 -166 -86 -45 -290 -101
-275 -76 3 6 16 10 28 10 43 0 172 42 238 76 65 34 118 78 107 89 -6 7 -35 -9
-123 -66 -94 -61 -153 -79 -262 -79 -194 0 -356 74 -519 235 -131 129 -206
265 -251 455 l-13 55 5 -72 c8 -117 33 -212 84 -318 42 -89 57 -109 133 -180
47 -44 110 -95 142 -114 64 -38 175 -81 211 -81 16 0 25 -6 25 -15 0 -19 -4
-19 -71 1 -76 23 -215 96 -276 146 -111 92 -222 262 -257 393 -52 194 -16 508
82 705 32 64 43 78 82 98 51 25 170 32 187 10z m1078 -160 c65 -68 94 -109
133 -186 35 -70 48 -107 45 -125 -11 -59 -33 -25 -53 83 -17 93 -29 108 -30
35 0 -85 -16 -173 -35 -191 -8 -8 -15 -20 -15 -25 0 -5 -7 -9 -16 -9 -13 0
-14 11 -9 78 3 42 2 91 -3 107 -9 28 -10 27 -17 -28 -13 -100 -21 -86 -64 102
-10 46 -28 95 -38 110 -21 28 -73 162 -73 187 0 25 82 -40 175 -138z m-778
-184 c-10 -10 -48 27 -41 38 4 6 16 1 27 -11 12 -11 18 -24 14 -27z m78 26 c4
-6 11 -8 16 -5 5 4 9 1 9 -4 0 -6 9 -11 21 -11 23 0 125 -46 134 -61 4 -5 19
-9 35 -9 15 0 30 -6 33 -14 3 -7 35 -21 71 -31 37 -10 64 -20 62 -23 -3 -2
-49 1 -103 7 -191 21 -205 22 -133 8 l65 -13 -2 -44 c-2 -25 -5 -60 -9 -79
l-5 -33 -47 6 c-26 4 -67 9 -91 13 l-43 6 6 36 c3 20 6 55 6 79 0 39 2 42 28
43 26 1 25 1 -6 9 -41 9 -53 20 -24 20 12 0 22 5 22 10 0 6 -6 10 -13 10 -8 0
-26 11 -42 24 -20 17 -24 25 -14 30 11 5 11 7 1 12 -6 3 -10 10 -6 15 7 12 21
11 29 -1z m0 -120 c3 -5 2 -10 -4 -10 -5 0 -13 5 -16 10 -3 6 -2 10 4 10 5 0
13 -4 16 -10z m306 -52 c24 -7 49 -24 65 -46 23 -29 26 -40 20 -79 -20 -149
-107 -198 -157 -90 -20 44 -23 88 -13 175 8 58 15 62 85 40z m609 -128 c0 -5
-2 -10 -4 -10 -3 0 -8 5 -11 10 -3 6 -1 10 4 10 6 0 11 -4 11 -10z m-1003
-736 c-3 -3 -12 -4 -19 -1 -8 3 -5 6 6 6 11 1 17 -2 13 -5z m110 -1 c-20 -2
-52 -2 -70 0 -17 2 0 4 38 4 39 0 53 -2 32 -4z"/>
<path d="M651 1780 c-41 -30 -84 -87 -75 -101 2 -4 29 7 60 23 45 24 71 31
123 33 57 2 66 5 69 22 5 34 -24 53 -82 53 -43 0 -61 -6 -95 -30z"/>
<path d="M762 1598 c-27 -14 -57 -61 -67 -107 -6 -30 -5 -33 11 -27 60 23 116
29 165 18 29 -7 54 -10 57 -7 10 10 -31 96 -55 115 -28 22 -75 25 -111 8z"/>
<path d="M612 1357 c-25 -26 -29 -57 -8 -57 15 0 27 22 32 58 3 27 3 27 -24
-1z"/>
<path d="M1424 839 c-10 -12 -41 -33 -69 -47 -65 -33 -191 -42 -249 -18 -34
14 -37 14 -26 0 45 -53 159 -86 225 -64 44 15 110 71 131 113 19 36 13 44 -12
16z"/>
<path d="M1399 2173 c-13 -16 -12 -17 4 -4 16 13 21 21 13 21 -2 0 -10 -8 -17
-17z"/>
<path d="M880 2177 c0 -2 15 -16 33 -33 l32 -29 -29 33 c-28 30 -36 37 -36 29z"/>
<path d="M1359 2123 l-24 -28 28 24 c25 23 32 31 24 31 -2 0 -14 -12 -28 -27z"/>
<path d="M660 1951 c-11 -8 4 -11 55 -11 78 0 141 -24 209 -79 21 -17 42 -31
47 -31 4 0 22 -12 40 -27 l32 -27 -16 31 c-20 38 -76 83 -148 120 -42 21 -71
28 -129 31 -41 1 -82 -2 -90 -7z"/>
<path d="M1505 1831 c-3 -6 2 -14 12 -18 10 -3 40 -14 66 -25 55 -21 67 -22
67 -7 0 22 -133 68 -145 50z"/>
<path d="M1485 1782 c-13 -14 0 -20 56 -26 65 -8 67 -13 16 -34 l-32 -12 40 7
c109 17 119 20 105 26 -59 23 -176 48 -185 39z"/>
<path d="M1459 1651 c-41 -41 -54 -79 -21 -66 38 17 138 17 170 1 36 -18 40
-10 17 34 -21 40 -62 70 -98 70 -21 0 -40 -11 -68 -39z"/>
<path d="M3678 1671 c-76 -25 -147 -71 -205 -135 -193 -211 -187 -551 12 -751
193 -193 471 -193 661 0 163 166 201 424 93 637 -36 71 -125 169 -187 205
-106 63 -259 80 -374 44z m235 -167 c113 -38 204 -168 214 -306 18 -236 -163
-421 -371 -378 -219 45 -326 333 -202 544 33 57 106 121 159 140 56 19 143 20
200 0z"/>
<path d="M2370 1165 l0 -505 85 0 85 0 0 357 c0 269 3 354 12 345 6 -6 108
-165 227 -354 l217 -343 94 0 95 0 3 503 2 502 -85 0 -85 0 0 -356 c0 -195 -3
-353 -8 -350 -4 2 -106 162 -227 355 l-220 351 -97 0 -98 0 0 -505z"/>
<path d="M4370 1585 l0 -85 140 0 140 0 0 -420 0 -420 85 0 85 0 0 420 0 420
140 0 140 0 0 85 0 85 -365 0 -365 0 0 -85z"/>
<path d="M5220 1165 l0 -505 90 0 90 0 2 208 3 207 213 3 212 2 0 85 0 85
-215 0 -215 0 0 125 0 125 240 0 240 0 0 85 0 85 -330 0 -330 0 0 -505z"/>
<path d="M6012 1293 l3 -378 28 -60 c52 -110 111 -165 215 -199 80 -27 219
-19 293 16 105 48 175 144 199 268 5 29 10 205 10 391 l0 339 -84 0 -85 0 -3
-352 c-3 -339 -4 -355 -25 -393 -77 -145 -264 -156 -348 -20 l-30 48 -3 359
-3 358 -85 0 -85 0 3 -377z"/>
<path d="M6942 1168 l3 -503 85 0 85 0 5 352 5 352 223 -354 224 -355 94 0 94
0 0 505 0 505 -85 0 -85 0 -2 -357 -3 -357 -224 357 -223 357 -99 0 -99 0 2
-502z"/>
<path d="M7970 1165 l0 -506 83 3 82 3 5 353 5 353 224 -356 224 -355 94 0 93
0 0 505 0 505 -85 0 -85 0 -2 -356 -3 -356 -223 356 -223 356 -95 0 -94 0 0
-505z"/>
<path d="M8893 1663 c2 -5 73 -132 158 -283 l154 -275 5 -220 5 -220 88 -3 87
-3 0 213 0 212 152 270 c83 149 158 281 166 294 l15 23 -103 -3 -103 -3 -103
-185 c-57 -101 -107 -186 -111 -187 -4 -1 -55 83 -111 187 l-104 190 -100 0
c-54 0 -97 -3 -95 -7z"/>
</g>
</svg>
