<?xml version="1.0" standalone="no"?>
<!DOCTYPE svg PUBLIC "-//W3C//DTD SVG 20010904//EN"
 "http://www.w3.org/TR/2001/REC-SVG-20010904/DTD/svg10.dtd">
<svg version="1.0" xmlns="http://www.w3.org/2000/svg"
 width="1105.000000pt" height="226.000000pt" viewBox="0 0 1105.000000 226.000000"
 preserveAspectRatio="xMidYMid meet">

<g transform="translate(0.000000,226.000000) scale(0.100000,-0.100000)"
fill="#000000" stroke="none">
<path d="M788 2074 c-11 -11 20 -116 49 -162 42 -69 109 -107 187 -107 46 0
70 6 99 23 43 27 89 90 107 147 7 22 16 50 21 62 5 14 4 23 -4 26 -19 6 -74
-20 -81 -40 -5 -12 -9 -14 -14 -5 -6 9 -18 9 -47 1 -67 -19 -164 -6 -231 30
-57 31 -75 36 -86 25z m142 -95 c52 -16 53 -17 20 -18 -38 -1 -140 42 -140 59
0 6 13 4 33 -6 17 -10 57 -25 87 -35z m230 1 c0 -5 -7 -10 -16 -10 -8 0 -12 5
-9 10 3 6 10 10 16 10 5 0 9 -4 9 -10z m-45 -10 c-3 -5 -11 -10 -16 -10 -6 0
-7 5 -4 10 3 6 11 10 16 10 6 0 7 -4 4 -10z m-15 -73 c0 -55 -17 -68 -77 -61
-34 5 -53 12 -53 20 0 18 63 28 89 15 17 -10 21 -9 21 5 0 13 -10 15 -65 12
-62 -3 -65 -2 -65 20 0 21 4 22 75 22 l75 0 0 -33z"/>
<path d="M725 2050 c-22 -10 -36 -19 -32 -19 12 -1 77 27 77 33 0 7 3 8 -45
-14z"/>
<path d="M609 1989 l-24 -20 28 17 c15 9 27 18 27 20 0 8 -8 4 -31 -17z"/>
<path d="M1431 1934 c0 -11 3 -14 6 -6 3 7 2 16 -1 19 -3 4 -6 -2 -5 -13z"/>
<path d="M601 1909 c-1 -9 -8 -19 -16 -23 -8 -3 -15 -18 -15 -33 0 -15 -11
-77 -25 -137 -26 -116 -32 -127 -134 -241 -86 -97 -107 -142 -26 -57 38 40 82
83 98 94 l30 21 -5 -74 c-5 -68 -4 -71 7 -39 27 76 66 140 95 155 17 9 55 15
94 15 l65 0 21 -57 c34 -90 85 -183 139 -249 39 -47 47 -64 38 -73 -9 -10 -6
-10 16 -2 42 16 55 14 81 -14 l24 -25 4 29 c3 19 0 32 -9 35 -7 3 -13 1 -13
-4 0 -6 -4 -10 -10 -10 -21 0 -9 20 16 26 l27 7 -25 13 c-24 13 -43 60 -28 69
3 2 19 -3 34 -11 48 -24 54 -15 8 11 -62 35 -109 78 -201 182 -104 118 -143
142 -239 145 -39 2 -72 5 -72 8 0 2 14 19 32 37 38 39 31 54 -10 24 -17 -12
-33 -21 -36 -21 -12 0 -5 41 19 117 14 42 23 82 21 87 -2 6 -5 4 -5 -5z m399
-584 c7 -9 10 -18 7 -22 -8 -7 -37 15 -37 28 0 14 16 11 30 -6z"/>
<path d="M1445 1793 c2 -62 0 -103 -5 -103 -6 0 -10 3 -10 8 0 4 -12 25 -26
47 -18 29 -23 33 -18 15 3 -14 26 -58 51 -98 46 -75 50 -100 11 -66 -15 13
-12 7 8 -19 20 -25 30 -33 32 -22 2 8 7 15 12 15 13 0 102 -81 154 -138 76
-86 141 -221 117 -245 -16 -16 -21 -6 -40 70 l-17 68 -7 -72 c-6 -77 -28 -133
-52 -133 -12 0 -15 15 -16 68 -1 37 -3 58 -6 47 -10 -45 -14 -51 -22 -35 -5 8
-16 49 -26 90 -10 41 -33 106 -52 145 -18 38 -30 59 -27 47 3 -13 7 -34 9 -45
1 -12 8 -43 15 -69 10 -40 10 -50 -4 -70 -9 -12 -16 -37 -16 -55 0 -18 -3 -33
-8 -33 -4 0 -30 16 -57 36 -28 19 -63 42 -80 50 -28 14 -27 13 8 -16 20 -18
37 -37 37 -42 0 -13 -52 -3 -150 28 -75 24 -108 27 -48 4 18 -6 44 -18 58 -25
14 -7 42 -18 63 -24 46 -15 49 -29 5 -23 l-33 4 33 -21 c46 -30 57 -59 43
-116 -17 -67 -38 -95 -71 -95 -36 0 -60 36 -70 104 -4 28 -8 39 -9 23 -1 -25
-3 -27 -28 -20 -16 5 -97 8 -180 8 -122 0 -153 3 -153 13 0 9 -14 2 -35 -17
-20 -17 -40 -31 -46 -31 -6 0 0 -13 13 -29 12 -16 39 -55 58 -86 19 -32 54
-77 77 -101 39 -41 46 -44 93 -44 64 0 129 25 211 81 40 27 75 44 93 44 29 0
30 2 44 78 8 42 18 77 24 77 12 0 115 -80 147 -113 28 -31 25 -62 -20 -177
-39 -101 -100 -177 -175 -217 -63 -34 -206 -78 -227 -70 -13 5 -4 9 52 23 25
7 8 9 -70 10 -162 1 -271 49 -404 179 -87 86 -141 166 -177 265 -30 82 -36 70
-13 -27 27 -114 81 -207 165 -285 77 -72 181 -130 253 -143 23 -5 37 -13 37
-22 0 -17 -20 -14 -103 17 -138 52 -253 155 -331 295 -59 105 -70 155 -70 302
0 73 -4 127 -8 120 -4 -7 -8 -28 -8 -47 0 -19 -3 -46 -7 -58 -10 -40 -23 -3
-23 70 0 37 -4 70 -10 73 -5 3 -10 3 -10 -2 -5 -123 -30 -274 -51 -315 -6 -12
0 -24 27 -47 39 -35 47 -37 64 -16 16 19 40 19 40 0 0 -23 46 -110 103 -195
114 -171 320 -384 400 -415 42 -16 49 -16 91 -2 104 35 252 164 366 317 69 94
103 162 126 253 17 67 17 68 40 52 13 -8 28 -15 34 -15 20 0 103 85 142 144
39 60 47 86 27 86 -6 0 -8 -7 -5 -16 4 -10 1 -14 -6 -12 -7 3 -32 -19 -56 -49
-44 -54 -104 -100 -72 -55 8 11 44 62 79 114 l64 93 -53 105 c-47 92 -67 119
-164 218 l-110 113 -23 137 -23 137 5 -102z m-367 -1300 c-10 -2 -26 -2 -35 0
-10 3 -2 5 17 5 19 0 27 -2 18 -5z"/>
<path d="M695 1681 c60 -8 113 -29 150 -60 11 -10 33 -26 50 -36 l30 -19 -15
23 c-9 13 -41 39 -72 58 -50 31 -67 36 -130 39 l-73 3 60 -8z"/>
<path d="M1358 1569 c24 -11 49 -18 55 -16 15 6 -56 37 -80 36 -10 0 1 -10 25
-20z"/>
<path d="M634 1551 c-32 -19 -67 -61 -59 -69 2 -3 27 5 54 17 27 11 68 21 90
21 34 0 41 3 41 19 0 36 -75 43 -126 12z"/>
<path d="M1338 1537 c23 -5 42 -14 42 -18 0 -5 9 -9 20 -9 11 0 20 4 20 8 0 9
-82 33 -108 31 -9 -1 2 -6 26 -12z"/>
<path d="M1300 1463 c-26 -18 -49 -43 -50 -55 0 -3 26 -4 58 -1 36 3 67 1 80
-6 17 -9 22 -9 22 1 -1 18 -31 53 -57 67 -27 14 -24 14 -53 -6z"/>
<path d="M3094 1470 c-107 -21 -216 -108 -267 -213 -91 -186 -46 -403 109
-530 229 -187 553 -44 607 267 22 128 -21 263 -115 362 -63 67 -123 100 -209
114 -71 11 -68 11 -125 0z m175 -149 c161 -83 198 -334 68 -469 -50 -52 -103
-75 -172 -75 -73 0 -120 19 -170 68 -78 79 -107 218 -66 325 22 58 82 126 136
154 44 23 156 21 204 -3z"/>
<path d="M8112 1462 c-121 -44 -181 -151 -152 -273 16 -67 66 -117 146 -148
200 -77 214 -87 214 -149 0 -62 -72 -103 -155 -88 -19 4 -58 23 -86 42 l-53
35 -45 -46 -46 -46 35 -30 c91 -77 216 -106 326 -74 171 49 229 260 101 371
-18 17 -46 35 -63 42 -16 6 -65 25 -110 42 -109 41 -147 85 -125 144 27 71
131 84 220 29 l49 -31 47 48 47 48 -34 25 c-91 70 -218 94 -316 59z"/>
<path d="M2010 1060 l0 -400 65 0 65 0 0 282 c0 225 3 280 13 270 6 -7 89
-133 182 -280 l171 -267 74 0 75 0 3 398 2 397 -65 0 -65 0 0 -267 c0 -148 -4
-274 -9 -281 -8 -13 -59 63 -295 441 l-68 107 -74 0 -74 0 0 -400z"/>
<path d="M3610 1395 l0 -65 115 0 115 0 0 -335 0 -335 65 0 65 0 0 335 0 335
110 0 110 0 0 65 0 65 -290 0 -290 0 0 -65z"/>
<path d="M4290 1060 l0 -400 70 0 70 0 2 163 3 162 170 5 170 5 3 62 3 63
-173 2 -173 3 -3 103 -3 102 196 0 195 0 0 65 0 65 -265 0 -265 0 0 -400z"/>
<path d="M4930 1159 l0 -301 32 -60 c56 -105 142 -158 258 -158 124 0 216 54
267 158 l28 57 3 303 3 302 -65 0 -66 0 0 -267 c0 -148 -5 -284 -10 -303 -11
-41 -61 -94 -103 -109 -69 -26 -142 -2 -188 62 l-29 40 0 289 0 288 -65 0 -65
0 0 -301z"/>
<path d="M5670 1293 c0 -93 3 -273 7 -400 l6 -233 64 0 63 0 0 280 c0 154 3
280 8 280 4 0 86 -126 182 -280 l175 -279 78 -1 77 0 -2 398 -3 397 -67 3 -68
3 -2 -287 -3 -287 -179 287 -178 286 -79 0 -79 0 0 -167z"/>
<path d="M6500 1060 l0 -400 65 0 65 0 0 280 c0 154 3 280 8 280 4 0 86 -126
182 -280 l175 -280 73 0 72 0 0 400 0 400 -65 0 -65 0 -2 -287 -3 -288 -179
288 -179 287 -74 0 -73 0 0 -400z"/>
<path d="M7250 1452 c0 -6 54 -106 119 -223 l120 -214 7 -178 7 -177 63 0 64
0 0 165 0 166 130 229 c72 127 130 232 130 235 0 3 -33 5 -74 5 l-74 0 -81
-144 c-45 -80 -85 -148 -90 -151 -10 -5 -51 60 -133 210 l-44 80 -72 3 c-40 2
-72 -1 -72 -6z"/>
<path d="M8580 1070 l0 -391 68 3 67 3 3 163 2 162 160 0 160 0 2 -162 3 -163
68 -3 67 -3 0 391 0 390 -70 0 -70 0 0 -165 0 -165 -160 0 -160 0 0 165 0 165
-70 0 -70 0 0 -390z"/>
<path d="M9360 1070 l0 -390 65 0 65 0 0 390 0 390 -65 0 -65 0 0 -390z"/>
<path d="M9650 1070 l0 -390 65 0 65 0 0 171 0 170 42 -3 42 -3 100 -167 101
-168 73 0 c72 0 73 0 61 22 -7 12 -47 81 -89 153 -114 193 -107 172 -58 186
58 15 122 80 138 139 23 86 -9 183 -76 229 -55 38 -133 51 -306 51 l-158 0 0
-390z m315 260 c69 -16 101 -73 74 -133 -18 -41 -53 -52 -158 -52 l-96 0 -3
84 c-2 46 -1 90 2 98 6 15 118 18 181 3z"/>
<path d="M10260 1395 l0 -65 105 0 105 0 0 -325 0 -326 68 3 67 3 3 323 2 322
105 0 105 0 0 65 0 65 -280 0 -280 0 0 -65z"/>
<path d="M702 1388 c-20 -23 -46 -77 -39 -84 2 -2 18 1 36 7 19 7 57 9 87 6
59 -6 62 -2 39 43 -28 53 -86 66 -123 28z"/>
<path d="M590 1199 c-13 -24 -4 -41 10 -19 10 16 13 40 5 40 -2 0 -9 -9 -15
-21z"/>
<path d="M1240 1188 c0 -19 2 -20 10 -8 13 19 13 30 0 30 -5 0 -10 -10 -10
-22z"/>
<path d="M1245 790 c-4 -6 -25 -20 -48 -32 -33 -18 -60 -22 -128 -23 -90 0
-95 -8 -20 -33 58 -20 96 -15 142 21 39 29 79 77 66 77 -3 0 -9 -5 -12 -10z"/>
<path d="M1345 595 c-77 -49 -80 -58 -7 -21 39 20 96 66 81 66 -2 0 -35 -20
-74 -45z"/>
</g>
</svg>
