<?xml version="1.0" standalone="no"?>
<!DOCTYPE svg PUBLIC "-//W3C//DTD SVG 20010904//EN"
 "http://www.w3.org/TR/2001/REC-SVG-20010904/DTD/svg10.dtd">
<svg version="1.0" xmlns="http://www.w3.org/2000/svg"
 width="1092.000000pt" height="228.000000pt" viewBox="0 0 1092.000000 228.000000"
 preserveAspectRatio="xMidYMid meet">

<g transform="translate(0.000000,228.000000) scale(0.100000,-0.100000)"
fill="#000000" stroke="none">
<path d="M819 2153 c-14 -3 -15 -10 -8 -31 5 -15 13 -45 19 -67 30 -126 156
-216 278 -199 86 13 174 111 200 224 7 29 10 55 8 58 -11 10 -59 -10 -81 -34
-14 -16 -25 -20 -27 -13 -3 10 -12 10 -38 1 -46 -16 -159 -15 -208 2 -23 8
-58 26 -79 40 -21 15 -40 25 -43 25 -3 -1 -12 -3 -21 -6z m96 -87 c33 -14 70
-26 82 -26 12 0 25 -5 29 -12 5 -8 -4 -9 -32 -5 -72 12 -114 28 -141 53 -30
28 -27 27 62 -10z m315 -20 c0 -2 -9 -6 -20 -9 -11 -3 -20 -1 -20 4 0 5 9 9
20 9 11 0 20 -2 20 -4z m-65 -16 c-3 -5 -11 -10 -16 -10 -6 0 -7 5 -4 10 3 6
11 10 16 10 6 0 7 -4 4 -10z m-10 -64 c5 -24 2 -42 -10 -59 -17 -26 -32 -28
-113 -11 -45 9 -17 29 43 30 38 1 61 6 63 14 3 9 -14 11 -72 8 l-76 -3 0 27 0
28 80 0 79 0 6 -34z"/>
<path d="M755 2125 c-16 -7 -23 -14 -14 -14 8 -1 24 6 35 14 24 18 18 18 -21
0z"/>
<path d="M1340 2116 c0 -2 7 -7 16 -10 8 -3 12 -2 9 4 -6 10 -25 14 -25 6z"/>
<path d="M648 2080 c-20 -11 -40 -25 -44 -31 -5 -9 73 31 95 48 14 10 -20 -1
-51 -17z"/>
<path d="M1513 2004 c3 -11 8 -68 12 -129 3 -60 9 -118 11 -127 10 -34 -14
-18 -41 28 -15 25 -29 43 -32 41 -5 -6 26 -69 67 -134 33 -52 41 -84 15 -63
-22 18 -18 8 11 -31 21 -27 25 -29 21 -11 -8 35 16 27 80 -27 102 -84 182
-194 220 -300 14 -41 15 -53 5 -63 -18 -18 -27 0 -44 81 -10 52 -14 60 -19 40
-4 -13 -7 -44 -8 -68 -1 -50 -37 -134 -55 -128 -6 2 -11 29 -11 65 -1 34 -4
64 -8 68 -4 4 -7 -4 -7 -19 0 -48 -19 -38 -35 18 -8 30 -22 79 -30 109 -8 30
-29 83 -46 118 -33 69 -34 54 -2 -70 15 -59 15 -66 0 -92 -9 -15 -17 -44 -17
-64 0 -20 -2 -36 -4 -36 -3 0 -42 25 -87 55 -74 49 -99 62 -99 51 0 -2 18 -16
40 -31 41 -28 55 -61 23 -51 -10 3 -45 12 -78 20 -33 7 -84 23 -114 35 -71 27
-78 20 -9 -8 29 -13 71 -31 93 -40 22 -10 51 -23 65 -29 24 -10 23 -11 -15
-12 -32 -1 -36 -3 -19 -10 11 -4 33 -23 48 -41 23 -27 26 -38 22 -73 -4 -24
-3 -33 2 -23 7 16 19 10 100 -52 105 -82 106 -84 71 -197 -42 -135 -106 -230
-191 -281 -60 -36 -196 -83 -241 -83 -37 0 -30 10 15 20 25 6 12 8 -52 9 -105
1 -182 20 -270 67 -175 92 -321 265 -381 454 -14 42 -18 49 -18 26 -2 -69 60
-238 116 -319 64 -93 250 -218 346 -234 34 -5 58 -26 45 -38 -15 -15 -209 72
-290 132 -87 63 -198 225 -235 344 -13 41 -17 90 -17 201 0 150 -8 173 -21 61
-4 -35 -11 -63 -16 -63 -5 0 -9 33 -10 73 0 73 -10 119 -22 101 -3 -6 -11 -65
-16 -131 -11 -123 -17 -153 -31 -153 -5 0 -6 -9 -3 -19 3 -10 -1 -29 -7 -41
-11 -20 -9 -25 16 -46 41 -34 63 -38 84 -19 20 18 40 13 40 -10 0 -48 146
-267 277 -417 158 -180 247 -248 324 -248 153 1 485 337 563 572 14 42 26 86
26 97 0 22 24 29 35 11 3 -5 18 -10 33 -10 19 0 42 16 83 60 62 64 124 163
114 180 -10 16 -25 2 -18 -17 4 -10 2 -14 -8 -11 -7 2 -29 -15 -50 -41 -88
-111 -114 -107 -33 5 31 44 63 92 71 107 9 19 20 27 29 23 9 -3 -14 51 -53
127 -64 125 -74 138 -184 249 l-116 116 -22 139 c-12 76 -21 155 -21 175 0 20
-5 40 -11 44 -7 4 -9 0 -6 -12z m-373 -1564 c0 -5 -13 -10 -30 -10 -16 0 -30
5 -30 10 0 6 14 10 30 10 17 0 30 -4 30 -10z"/>
<path d="M611 1969 c-1 -9 -7 -19 -15 -22 -8 -3 -17 -28 -21 -59 -8 -62 -40
-202 -54 -239 -5 -15 -47 -70 -93 -123 -122 -140 -132 -167 -22 -59 52 51 100
90 106 87 6 -4 8 -23 4 -48 -4 -22 -9 -57 -12 -76 -3 -24 5 -10 26 42 48 120
98 158 205 158 53 0 58 -5 83 -73 43 -113 101 -212 170 -289 30 -33 33 -40 21
-55 -13 -15 -12 -15 8 -5 53 29 112 2 114 -51 1 -20 4 -11 9 23 4 35 3 58 -4
63 -8 6 -7 10 2 14 9 3 4 11 -16 23 -20 13 -29 26 -29 44 0 29 11 32 47 11 14
-8 32 -14 40 -14 8 0 -11 14 -43 31 -43 23 -94 69 -185 166 -155 164 -181 181
-285 184 -42 2 -77 5 -77 8 0 2 14 18 31 36 42 43 34 61 -13 29 -20 -14 -39
-21 -42 -17 -6 10 7 64 36 144 11 31 18 63 15 70 -4 9 -6 8 -6 -3z m437 -642
c4 -21 -24 -13 -32 9 -4 11 -1 14 11 12 10 -2 19 -11 21 -21z m72 -98 c0 -6
-4 -7 -10 -4 -5 3 -10 11 -10 16 0 6 5 7 10 4 6 -3 10 -11 10 -16z"/>
<path d="M710 1723 c14 -2 40 -6 57 -9 18 -2 69 -29 113 -59 83 -56 108 -59
43 -5 -64 52 -131 80 -187 79 -28 -1 -40 -3 -26 -6z"/>
<path d="M1390 1622 c0 -10 99 -46 106 -39 7 7 -41 32 -78 41 -16 3 -28 3 -28
-2z"/>
<path d="M643 1580 c-33 -20 -70 -66 -60 -76 3 -3 23 4 45 15 22 11 66 24 97
27 60 7 73 17 55 39 -18 22 -98 19 -137 -5z"/>
<path d="M1410 1567 c25 -6 48 -15 51 -20 3 -5 19 -7 35 -5 25 3 22 6 -28 21
-31 9 -67 16 -80 16 -14 -1 -5 -6 22 -12z"/>
<path d="M8888 1498 c-78 -10 -159 -52 -212 -108 -88 -94 -120 -193 -114 -399
5 -124 28 -194 88 -269 108 -137 306 -182 460 -105 36 18 82 47 104 66 l38 33
-44 49 -45 49 -49 -31 c-97 -63 -155 -75 -237 -52 -47 13 -112 70 -138 120
-67 132 -26 399 79 423 77 55 200 47 287 -18 17 -12 35 -25 41 -29 6 -4 30 16
54 44 l42 50 -23 25 c-34 36 -155 92 -219 102 -30 4 -81 4 -112 0z"/>
<path d="M1344 1466 c-41 -41 -45 -60 -8 -46 14 6 43 10 64 10 21 0 50 -4 64
-10 37 -14 34 10 -5 49 -40 41 -72 40 -115 -3z"/>
<path d="M3289 1487 c-104 -30 -212 -124 -264 -232 -59 -119 -57 -295 4 -419
38 -78 129 -167 208 -204 52 -24 70 -27 163 -27 99 0 109 2 167 32 85 45 154
117 200 210 38 77 38 77 38 203 0 125 0 127 -37 201 -47 94 -123 173 -204 211
-74 35 -200 46 -275 25z m191 -142 c64 -22 113 -67 151 -137 32 -59 34 -69 34
-158 0 -84 -3 -102 -28 -152 -84 -170 -295 -210 -425 -79 -84 83 -114 230 -72
346 26 70 117 168 172 184 50 14 121 13 168 -4z"/>
<path d="M9609 1463 c-6 -16 -76 -197 -156 -403 -80 -206 -149 -385 -154 -397
-8 -23 -7 -23 65 -23 l74 0 37 100 38 100 171 0 171 0 36 -98 36 -97 76 -3 77
-3 -21 53 c-11 29 -84 215 -161 413 -77 198 -145 366 -150 373 -6 7 -34 12
-69 12 -56 0 -60 -2 -70 -27z m136 -346 l51 -132 -109 -3 c-60 -1 -111 -1
-113 1 -2 2 17 55 42 118 26 63 50 125 55 138 5 13 12 21 16 17 4 -3 30 -66
58 -139z"/>
<path d="M10293 1482 l-133 -3 0 -419 0 -420 75 0 75 0 0 169 0 168 128 6
c149 7 190 17 238 59 93 82 111 249 37 347 -56 73 -169 99 -420 93z m263 -158
c54 -40 56 -124 4 -176 -28 -27 -31 -28 -139 -28 l-111 0 0 116 0 116 109 -4
c91 -3 115 -7 137 -24z"/>
<path d="M2140 1045 l0 -435 70 0 70 0 1 283 c1 155 4 293 8 307 8 28 -9 52
247 -350 l146 -230 79 0 79 0 0 203 c0 112 3 306 7 430 l6 227 -71 0 -72 0 -1
-257 c0 -142 -4 -280 -7 -308 l-7 -50 -156 245 c-85 135 -172 273 -193 308
l-39 62 -83 0 -84 0 0 -435z"/>
<path d="M3882 1413 l3 -68 123 -3 122 -3 0 -364 0 -365 70 0 70 0 0 365 0
365 120 0 120 0 0 70 0 70 -315 0 -316 0 3 -67z"/>
<path d="M4622 1048 l3 -433 75 0 c73 0 75 1 76 25 1 14 2 94 2 178 l2 152 63
0 c35 0 119 3 185 7 l122 6 0 68 0 69 -187 2 -188 3 -3 108 -3 107 211 0 210
0 0 70 0 70 -285 0 -285 0 2 -432z"/>
<path d="M5314 1153 c8 -359 9 -361 74 -450 21 -28 52 -51 96 -73 63 -31 69
-32 163 -28 85 3 105 8 151 33 63 34 106 85 135 158 18 47 20 80 25 370 l5
317 -71 0 -70 0 -4 -302 c-4 -322 -5 -325 -57 -381 -37 -41 -73 -57 -126 -57
-64 0 -110 24 -145 76 -28 40 -30 48 -30 142 0 54 -3 194 -7 310 l-6 212 -70
0 -70 0 7 -327z"/>
<path d="M6120 1298 c0 -101 3 -294 7 -430 l6 -248 69 0 68 0 1 218 c1 119 4
255 7 302 l7 85 149 -235 c82 -129 170 -268 195 -307 l46 -73 78 0 77 0 0 435
0 435 -70 0 -70 0 0 -305 c0 -168 -3 -305 -7 -305 -5 0 -93 137 -198 305
l-190 304 -87 1 -88 0 0 -182z"/>
<path d="M7020 1045 l0 -435 39 0 c21 0 53 3 70 6 l31 7 1 201 c1 110 4 247 8
302 l6 102 195 -309 195 -309 77 0 78 0 0 435 0 435 -70 0 -70 0 -1 -232 c-1
-128 -4 -265 -8 -305 l-6 -71 -170 270 c-93 149 -179 286 -189 304 l-20 34
-83 0 -83 0 0 -435z"/>
<path d="M7841 1458 c7 -13 66 -120 133 -238 l121 -215 5 -187 c3 -102 9 -190
13 -194 4 -5 37 -10 72 -12 l65 -4 0 183 0 183 140 248 c77 137 140 251 140
254 0 3 -37 4 -81 2 l-81 -3 -88 -155 c-49 -85 -94 -155 -101 -155 -6 0 -50
71 -98 157 l-86 157 -83 1 c-83 0 -83 0 -71 -22z"/>
<path d="M732 1414 c-24 -16 -52 -64 -52 -88 0 -12 6 -13 38 -4 20 6 65 8 99
5 l62 -6 -10 29 c-25 70 -87 100 -137 64z"/>
<path d="M295 1399 c-4 -6 -5 -12 -2 -15 2 -3 7 2 10 11 7 17 1 20 -8 4z"/>
<path d="M602 1208 c-14 -14 -16 -38 -3 -38 10 0 26 39 19 46 -2 2 -10 -2 -16
-8z"/>
<path d="M1307 1194 c3 -9 9 -12 12 -7 3 4 10 11 15 16 5 4 0 7 -12 7 -15 0
-20 -4 -15 -16z"/>
<path d="M1302 1135 c0 -16 2 -22 5 -12 2 9 2 23 0 30 -3 6 -5 -1 -5 -18z"/>
<path d="M879 1084 c-13 -15 -42 -35 -64 -45 -37 -17 -38 -19 -13 -19 22 0 33
-10 63 -62 82 -138 154 -208 217 -208 46 1 157 48 231 100 65 45 77 50 96 41
18 -10 22 -9 31 13 5 14 12 49 15 78 l6 53 -21 -37 c-40 -74 -106 -54 -130 40
-7 26 -14 42 -17 36 -3 -8 -18 -9 -51 -2 -26 5 -114 9 -196 8 -129 0 -148 2
-142 15 8 21 3 19 -25 -11z"/>
<path d="M291 1054 c0 -11 3 -14 6 -6 3 7 2 16 -1 19 -3 4 -6 -2 -5 -13z"/>
<path d="M1263 730 c-62 -34 -146 -47 -206 -32 l-42 11 25 -19 c35 -27 104
-44 147 -37 38 7 95 47 121 85 18 27 19 27 -45 -8z"/>
<path d="M1405 539 c-44 -27 -76 -49 -71 -49 17 0 135 63 152 81 27 30 5 21
-81 -32z"/>
</g>
</svg>
